[img]http://img87.imageshack.us/img87/6610/americanpie1.jpg[/img]

[b][size=200][color=black]PLOT[/color][/size][/b]

[code]Four teenage boys enter a pact to lose their virginity by prom night.[/code]

[b][size=200][color=black]IMDB[/color][/size][/b]

[code]http://www.imdb.com/title/tt0163651/[/code]

[b][size=200][color=black]MOVIE INFO[/color][/size][/b]

[code]American Pie 1 [1999] DvdRip x264 AAC-V3nom.mp4
Format                           : MPEG-4
Format profile                   : Base Media / Version 2
Codec ID                         : mp42
File size                        : 341 MiB
Duration                         : 1h 34mn
Overall bit rate                 : 503 Kbps
Encoded date                     : UTC 2012-10-17 13:14:12
Tagged date                      : UTC 2012-10-17 13:35:12
Writing application              : HandBrake 0.9.8 2012071700

Video
ID                               : 1
Format                           : AVC
Format/Info                      : Advanced Video Codec
Format profile                   : Main@L2.2
Format settings, CABAC           : Yes
Format settings, ReFrames        : 4 frames
Codec ID                         : avc1
Codec ID/Info                    : Advanced Video Coding
Duration                         : 1h 34mn
Bit rate mode                    : Variable
Bit rate                         : 380 Kbps
Width                            : 608 pixels
Height                           : 336 pixels
Display aspect ratio             : 16:9
Frame rate mode                  : Variable
Frame rate                       : 23.976 fps
Minimum frame rate               : 11.989 fps
Maximum frame rate               : 23.981 fps
Color space                      : YUV
Chroma subsampling               : 4:2:0
Bit depth                        : 8 bits
Scan type                        : Progressive
Bits/(Pixel*Frame)               : 0.078
Stream size                      : 262 MiB (77%)
Writing library                  : x264 

Audio
ID                               : 2
Format                           : AAC
Format/Info                      : Advanced Audio Codec
Format profile                   : LC
Codec ID                         : 40
Duration                         : 1h 34mn
Bit rate mode                    : Variable
Bit rate                         : 112 Kbps
Maximum bit rate                 : 184 Kbps
Channel(s)                       : 2 channels
Channel positions                : Front: L R
Sampling rate                    : 48.0 KHz
Compression mode                 : Lossy
Stream size                      : 75.9 MiB (22%)
Encoded date                     : UTC 2012-10-17 13:14:12
Tagged date                      : UTC 2012-10-17 13:35:06[/code]

[b][size=200][color=black]SCREENSHOTS[/color][/size][/b]

[img]http://img338.imageshack.us/img338/1052/americanpie11999dvdripx.jpg[/img]

[img]http://kastatic.com/i2/users/133df62bbf28e62494bb17fe11078f1a.gif[/img][img]http://kastatic.com/i2/users/133df62bbf28e62494bb17fe11078f1a.gif[/img]